<svg enable-background="new 0 0 140 140" height="512" viewBox="0 0 140 140" width="512" xmlns="http://www.w3.org/2000/svg"><circle cx="70" cy="70" fill="#ffd25a" r="64"/><path d="m107.5700073 47.8200684 26.289978 26.2800293c-2.039978 32.079834-27.6799927 57.7199707-59.75 59.75l-26.1799927-26.170166c-.0999756-.0900879-.2000122-.1899414-.289978-.2897949l-15.0200195-15.0200196c-.0999756-.0900879-.2000122-.1901855-.289978-.2900391l-.0200195-.0200195c-.6300049-.7099609-1.0200195-1.630127-1.0200195-2.6501465v-54.119873c0-2.2001953 1.7900391-4 4-4h54.1100464c1.0599976 0 2.0099487.4199219 2.7199707 1.0898438l.0300293.0200195c.0499878.0500488.0999756.0900879.1399536.1401367l15.2100219 15.2099609c.0200195.0200195.0499878.0500488.0700073.0700684z" opacity=".1"/><path d="m31.2857723 89.4106598c0 2.2092285 1.7908916 4 3.9999981 4h54.1162758c2.2091675 0 4-1.7907715 4-4v-48.1615868h-62.116272v48.1615868z" fill="#ececec"/><path d="m35.285587 46.326431h54.116699v43.083984h-54.116699z" fill="#dad7dc"/><path d="m46.5979576 104.722847c0 2.2092285 1.7908936 4 4 4h54.1162682c2.2091675 0 4-1.7907715 4-4v-48.0842323h-62.1162682z" fill="#e6e7e8"/><path d="m50.597775 61.638615h54.116699v43.083984h-54.116699z" fill="#ececec"/><path d="m54.597775 65.638619h18.010384v19.774008h-18.010384z" fill="#509fd7"/><path d="m71.3936234 83.1339798c-.0488129-1.6612854-.0975037-3.3268356-.7877426-4.1937408-.7170029-.9005203-4.2839508-1.6856918-4.2856216-1.6860352l-1.0256424-.5236282.0004578-.0020981-.0022507.0012054-.0002899-.0001602-.0000687.0003204-.0022507.0011749v-.7745895c.5257645-.6685486.971077-1.4145813.971077-2.0254135v-.0382156c.2933273 0 .5311203-.4792404.5311203-1.0705338 0-.1413345-.0139236-.2866058-.0386047-.4260712.0330276-.1771317.1497421-.8636322.1158676-1.5624237v-.0065765c.004921-.1032486.0065613-.1655121.0065613-.1655121s.0524368-.9274902-.8635864-1.7107544c-.2179413-.4178696-.8324356-1.1503372-2.4071922-.9570007-1.5796776-.1949844-2.1925392.5407867-2.4104805.9586563-.9143677.7832642-.8619347 1.7090988-.8619347 1.7090988s.0016365.0622635.0065498.1655121v.0065765c-.0338783.698761.0828362 1.3852234.1158752 1.5623932-.0246849.1394958-.0386086.2847672-.0386086.4261017 0 .5912933.2377815 1.0705338.5311241 1.0705338v.0382156c0 .6108322.4453201 1.3568649.9710655 2.0254135v.7764359l-.005764-.0029907-.0000725-.000351-.0002861.0001602-.0022621-.0012054.0004578.0020981-1.0259743.5238495-.0001984-.0002594s-3.5684776.7853928-4.2856483 1.6860733c-.690239.8669052-.738945 2.5324173-.7869949 4.1937408z" fill="#4388b9"/><g fill="#b0b1b5"><path d="m75.00296 72.126076h27.316715v2.170321h-27.316715z"/><path d="m75.00296 77.684189h27.316715v2.170321h-27.316715z"/><path d="m75.00296 83.242302h27.316715v2.170321h-27.316715z"/><path d="m54.597775 88.800415h47.721897v2.170321h-47.721897z"/><path d="m54.597775 94.358528h47.721897v2.170321h-47.721897z"/><path d="m54.597775 99.916641h47.721897v2.170321h-47.721897z"/></g><path d="m108.7142258 57.6386147v-7.0322266c0-2.2089844-1.7908325-4-4-4h-54.1162682c-2.2091064 0-4 1.7910156-4 4v7.0322266z" fill="#e7a04e"/><g fill="#e6e7e8"><circle cx="53.023" cy="52.123" r="2.056"/><circle cx="60.135" cy="52.123" r="2.056"/><circle cx="67.246" cy="52.123" r="2.056"/></g><path d="m93.4020462 42.3264313v-7.0322266c0-2.2089844-1.7908325-4-4-4h-54.1162758c-2.2091064 0-3.9999981 1.7910156-3.9999981 4v7.0322266z" fill="#ba9a43"/><circle cx="37.711" cy="36.81" fill="#d6b251" r="2.056"/><circle cx="44.822" cy="36.81" fill="#d6b251" r="2.056"/><circle cx="51.934" cy="36.81" fill="#d6b251" r="2.056"/></svg>