<svg id="Flat" height="512" viewBox="0 0 64 64" width="512" xmlns="http://www.w3.org/2000/svg"><circle cx="46" cy="18" fill="#efefef" r="15"/><g fill="#898989"><path d="m45 3h2v3h-2z"/><path d="m45 30h2v3h-2z"/><path d="m58 17h3v2h-3z"/><path d="m54.546 26.046h2v3h-2z" transform="matrix(.707 -.707 .707 .707 -3.209 47.345)"/><path d="m54.046 7.454h3v2h-3z" transform="matrix(.707 -.707 .707 .707 10.291 41.753)"/></g><path d="m45 8h2v8h-2z" fill="#707070"/><path d="m46 34a16 16 0 1 1 16-16 16.01833 16.01833 0 0 1 -16 16zm0-30a14 14 0 1 0 14 14 14.01572 14.01572 0 0 0 -14-14z" fill="#a3a3a3"/><path d="m41.744 12.278h2v4.932h-2z" fill="#707070" transform="matrix(.707 -.707 .707 .707 2.094 34.543)"/><circle cx="46" cy="18" fill="#898989" r="3"/><path d="m28 12v-4a2 2 0 0 1 2-2h5a1 1 0 0 1 1 1v5z" fill="#cc995e"/><path d="m25 8h1a2 2 0 0 1 2 2v2a0 0 0 0 1 0 0h-4a0 0 0 0 1 0 0v-3a1 1 0 0 1 1-1z" fill="#b38652"/><path d="m20 35h4v8h-4z" fill="#ffd7a8"/><path d="m36 35h4v8h-4z" fill="#ffd7a8"/><path d="m36 37 3.97161-.79432a1 1 0 0 0 .774-1.22312l-1.02382-4.09527a6 6 0 0 0 -3.45734-4.05965l-4.26445-1.82764h-4l-4.26448 1.82764a6 6 0 0 0 -3.45734 4.05965l-1.02382 4.09527a1 1 0 0 0 .774 1.22312l3.97164.79432v6h12z" fill="#898989"/><path d="m28 23v3a2 2 0 0 0 2 2 2 2 0 0 0 2-2v-3" fill="#f2cca0"/><path d="m24 12h12a0 0 0 0 1 0 0v6a6 6 0 0 1 -6 6 6 6 0 0 1 -6-6v-6a0 0 0 0 1 0 0z" fill="#ffd7a8"/><path d="m24 25h2v7h-2z" fill="#cc995e"/><path d="m34 25h2v7h-2z" fill="#cc995e"/><path d="m24 32h12v11h-12z" fill="#61a4d9"/><path d="m2 35v-26h15a2 2 0 0 1 2 2v22a2 2 0 0 1 -2 2z" fill="#d6d6d6"/><path d="m6 43v-19a2 2 0 0 0 -2-2h-2v21z" fill="#efefef"/><path d="m2 43h54a2 2 0 0 1 2 2v4a2 2 0 0 1 -2 2h-54" fill="#cc995e"/><path d="m2 51h52v11h-52z" fill="#898989"/><path d="m2 51h32v6a2 2 0 0 1 -2 2h-30z" fill="#efefef"/><path d="m7 54h2v2h-2z" fill="#bcbcbc"/><path d="m11 54h9v2h-9z" fill="#bcbcbc"/><path d="m22 54h2v2h-2z" fill="#bcbcbc"/></svg>