<?xml version="1.0" encoding="iso-8859-1"?>
<!-- Generator: Adobe Illustrator 19.0.0, SVG Export Plug-In . SVG Version: 6.00 Build 0)  -->
<svg version="1.1" id="Capa_1" xmlns="http://www.w3.org/2000/svg" xmlns:xlink="http://www.w3.org/1999/xlink" x="0px" y="0px"
	 viewBox="0 0 397.174 397.174" style="enable-background:new 0 0 397.174 397.174;" xml:space="preserve">
<g>
	<path style="fill:#00EFD1;" d="M322.408,61.442h34.482c17.312,0,31.347,14.035,31.347,31.347v242.939
		c0,17.312-14.035,31.347-31.347,31.347H40.286c-17.312,0-31.347-14.035-31.347-31.347V92.789c0-17.312,14.035-31.347,31.347-31.347
		H322.408z"/>
	<g>
		<path style="fill:#224099;" d="M357.412,52.56h-22.988V31.14c0-5.771-4.678-10.449-10.449-10.449s-10.449,4.678-10.449,10.449
			v21.42h-104.49V31.14c0-5.771-4.678-10.449-10.449-10.449c-5.771,0-10.449,4.678-10.449,10.449v21.42H83.649V31.14
			c0-5.771-4.678-10.449-10.449-10.449c-5.771,0-10.449,4.678-10.449,10.449v21.42H39.763C18.125,52.255,0.335,69.548,0.029,91.186
			c-0.01,0.709-0.001,1.417,0.028,2.125v241.894c-1.157,21.61,15.424,40.065,37.034,41.222c0.89,0.048,1.781,0.065,2.673,0.052
			h317.649c21.638,0.319,39.438-16.963,39.758-38.601c0.013-0.891-0.004-1.783-0.052-2.673V93.311
			c0.868-21.623-15.958-39.856-37.581-40.723C358.829,52.56,358.121,52.55,357.412,52.56z M376.22,335.205
			c0,12.016-7.314,20.376-18.808,20.376H39.763c-11.494,0-18.808-8.359-18.808-20.376V93.311
			c-0.871-10.061,6.579-18.924,16.641-19.794c0.721-0.062,1.444-0.082,2.167-0.059h22.988V86.52c0,5.771,4.678,10.449,10.449,10.449
			c5.771,0,10.449-4.678,10.449-10.449V73.458h104.49V86.52c0,5.771,4.678,10.449,10.449,10.449c5.771,0,10.449-4.678,10.449-10.449
			V73.458h104.49V86.52c0,5.771,4.678,10.449,10.449,10.449s10.449-4.678,10.449-10.449V73.458h22.988
			c10.094-0.326,18.541,7.592,18.867,17.686c0.023,0.723,0.004,1.447-0.059,2.167V335.205z"/>
		<path style="fill:#224099;" d="M171.42,160.185h-18.808c-5.474,0.297-10.152-3.901-10.449-9.375c-0.019-0.358-0.019-0.716,0-1.074
			c0-5.771,4.678-10.449,10.449-10.449h18.808c5.771,0,10.449,4.678,10.449,10.449c0.297,5.474-3.901,10.152-9.375,10.449
			C172.137,160.204,171.778,160.204,171.42,160.185z"/>
		<path style="fill:#224099;" d="M243.518,160.185h-18.286c-5.474,0.297-10.152-3.901-10.449-9.375
			c-0.019-0.358-0.019-0.716,0-1.074c0-5.771,4.678-10.449,10.449-10.449h18.286c5.474-0.297,10.152,3.901,10.449,9.375
			c0.019,0.358,0.019,0.716,0,1.074c0.297,5.474-3.901,10.152-9.375,10.449C244.234,160.204,243.876,160.204,243.518,160.185z"/>
		<path style="fill:#224099;" d="M316.661,160.185h-18.286c-5.474,0.297-10.152-3.901-10.449-9.375
			c-0.019-0.358-0.019-0.716,0-1.074c0-5.771,4.678-10.449,10.449-10.449h18.286c5.474-0.297,10.152,3.901,10.449,9.375
			c0.019,0.358,0.019,0.716,0,1.074c0.297,5.474-3.901,10.152-9.375,10.449C317.377,160.204,317.019,160.204,316.661,160.185z"/>
		<path style="fill:#224099;" d="M171.42,232.283h-18.808c-5.771,0-10.449-4.678-10.449-10.449
			c-0.297-5.474,3.901-10.152,9.375-10.449c0.358-0.019,0.716-0.019,1.074,0h18.808c5.474-0.297,10.152,3.901,10.449,9.375
			c0.019,0.358,0.019,0.716,0,1.074C181.869,227.605,177.191,232.283,171.42,232.283z"/>
		<path style="fill:#224099;" d="M98.277,232.283H79.469c-5.771,0-10.449-4.678-10.449-10.449
			c-0.297-5.474,3.901-10.152,9.375-10.449c0.358-0.019,0.716-0.019,1.074,0h18.808c5.474-0.297,10.152,3.901,10.449,9.375
			c0.019,0.358,0.019,0.716,0,1.074C108.726,227.605,104.048,232.283,98.277,232.283L98.277,232.283z"/>
		<path style="fill:#224099;" d="M243.518,232.283h-18.286c-5.771,0-10.449-4.678-10.449-10.449
			c-0.297-5.474,3.901-10.152,9.375-10.449c0.358-0.019,0.716-0.019,1.074,0h18.286c5.474-0.297,10.152,3.901,10.449,9.375
			c0.019,0.358,0.019,0.716,0,1.074c0.297,5.474-3.901,10.152-9.375,10.449C244.234,232.302,243.876,232.302,243.518,232.283z"/>
		<path style="fill:#224099;" d="M316.661,232.283h-18.286c-5.771,0-10.449-4.678-10.449-10.449
			c-0.297-5.474,3.901-10.152,9.375-10.449c0.358-0.019,0.716-0.019,1.074,0h18.286c5.474-0.297,10.152,3.901,10.449,9.375
			c0.019,0.358,0.019,0.716,0,1.074c0.297,5.474-3.901,10.152-9.375,10.449C317.377,232.302,317.019,232.302,316.661,232.283z"/>
		<path style="fill:#224099;" d="M171.42,303.336h-18.808c-5.474,0.297-10.152-3.901-10.449-9.375c-0.019-0.358-0.019-0.716,0-1.074
			c0-5.771,4.678-10.449,10.449-10.449h18.808c5.771,0,10.449,4.678,10.449,10.449c0.297,5.474-3.901,10.152-9.375,10.449
			C172.137,303.355,171.778,303.355,171.42,303.336z"/>
		<path style="fill:#224099;" d="M98.277,303.336H79.469c-5.474,0.297-10.152-3.901-10.449-9.375c-0.019-0.358-0.019-0.716,0-1.074
			c0-5.771,4.678-10.449,10.449-10.449h18.808c5.771,0,10.449,4.678,10.449,10.449c0.297,5.474-3.901,10.152-9.375,10.449
			C98.994,303.355,98.635,303.355,98.277,303.336z"/>
		<path style="fill:#224099;" d="M243.518,303.336h-18.286c-5.474,0.297-10.152-3.901-10.449-9.375
			c-0.019-0.358-0.019-0.716,0-1.074c0-5.771,4.678-10.449,10.449-10.449h18.286c5.474-0.297,10.152,3.901,10.449,9.375
			c0.019,0.358,0.019,0.716,0,1.074c0.297,5.474-3.901,10.152-9.375,10.449C244.234,303.355,243.876,303.355,243.518,303.336z"/>
	</g>
</g>
<g>
</g>
<g>
</g>
<g>
</g>
<g>
</g>
<g>
</g>
<g>
</g>
<g>
</g>
<g>
</g>
<g>
</g>
<g>
</g>
<g>
</g>
<g>
</g>
<g>
</g>
<g>
</g>
<g>
</g>
</svg>
